<?xml version="1.0" encoding="UTF-8" standalone="no"?>
<svg
   version="1.0"
   width="1024.000000pt"
   height="1024.000000pt"
   viewBox="0 0 1024.000000 1024.000000"
   preserveAspectRatio="xMidYMid meet"
   id="svg20"
   sodipodi:docname="logo.svg"
   inkscape:version="1.3.2 (091e20e, 2023-11-25, custom)"
   xmlns:inkscape="http://www.inkscape.org/namespaces/inkscape"
   xmlns:sodipodi="http://sodipodi.sourceforge.net/DTD/sodipodi-0.dtd"
   xmlns="http://www.w3.org/2000/svg"
   xmlns:svg="http://www.w3.org/2000/svg">
  <defs
     id="defs20" />
  <sodipodi:namedview
     id="namedview20"
     pagecolor="#ffffff"
     bordercolor="#000000"
     borderopacity="0.25"
     inkscape:showpageshadow="2"
     inkscape:pageopacity="0.0"
     inkscape:pagecheckerboard="0"
     inkscape:deskcolor="#d1d1d1"
     inkscape:document-units="pt"
     inkscape:zoom="2.4521484"
     inkscape:cx="868.01434"
     inkscape:cy="569.09279"
     inkscape:window-width="1920"
     inkscape:window-height="1051"
     inkscape:window-x="-9"
     inkscape:window-y="-9"
     inkscape:window-maximized="1"
     inkscape:current-layer="g20" />
  <g
     transform="translate(0.000000,1024.000000) scale(0.100000,-0.100000)"
     fill="#000000"
     stroke="none"
     id="g20">
    <path
       d="M5175 9129 c-128 -7 -382 -39 -460 -59 -22 -5 -53 -12 -70 -15 -237 -39 -586 -158 -883 -301 -136 -65 -357 -188 -402 -224 -25 -20 -23 -20 2081 -20 1158 0 2109 3 2112 7 9 8 -4 16 -128 88 -228 132 -469 239 -741 330 -136 45 -374 107 -477 125 -29 5 -63 11 -77 14 -267 52 -631 73 -955 55z m573 -290 c288 -32 519 -76 707 -133 l80 -25 -1095 0 -1095 0 95 29 c124 38 402 95 560 114 69 9 139 17 155 19 71 9 505 6 593 -4z"
       id="path1" />
    <path
       d="M7715 8439 c-132 -20 -138 -25 -40 -33 121 -10 170 -21 302 -66 171 -60 217 -86 333 -190 197 -178 315 -488 269 -712 -33 -164 -109 -311 -214 -413 -48 -48 -177 -124 -235 -139 -24 -7 -24 -6 5 16 67 50 159 147 201 209 57 87 82 143 110 254 54 207 15 413 -110 582 -108 148 -227 233 -411 294 l-70 24 -660 0 c-607 1 -802 7 -885 30 -8 2 -40 7 -70 10 -30 3 -84 10 -120 16 -74 11 -1029 25 -1055 15 -15 -6 -15 -9 7 -25 36 -28 79 -95 98 -151 l17 -49 1214 -6 c668 -3 1241 -8 1273 -11 240 -25 457 -182 516 -371 24 -79 26 -185 5 -267 -25 -95 -40 -114 -134 -158 -81 -39 -87 -40 -165 -36 -102 6 -178 40 -235 105 -80 91 -101 212 -53 313 34 72 108 141 153 142 16 1 29 4 29 8 0 9 100 6 125 -4 45 -18 -32 35 -100 69 -124 61 -149 64 -549 66 -448 2 -793 21 -1146 65 -583 71 -700 71 -878 -6 -43 -19 -51 -27 -72 -77 -34 -83 -152 -198 -252 -246 -80 -38 -279 -102 -408 -132 -41 -9 -82 -20 -90 -23 -8 -4 113 -9 270 -13 157 -3 296 -7 310 -9 41 -4 -24 -16 -230 -44 -235 -32 -394 -44 -697 -53 -168 -4 -240 -9 -237 -17 6 -15 62 -50 103 -64 56 -20 145 -31 331 -42 96 -5 209 -13 250 -17 l75 -7 -55 -8 c-170 -24 -446 -28 -2036 -28 -1639 -1 -1700 -2 -1741 -20 -99 -44 -97 -174 3 -216 28 -12 316 -14 1762 -14 951 0 1744 -3 1761 -6 l32 -7 -28 -29 c-15 -17 -49 -41 -75 -54 -103 -53 -121 -54 -690 -54 -340 0 -529 -4 -533 -10 -4 -6 40 -10 125 -10 114 0 141 -3 207 -25 42 -14 99 -41 127 -59 l51 -33 340 -8 c367 -7 492 -15 440 -28 -16 -4 -97 -11 -179 -17 -166 -10 -186 -19 -186 -75 0 -51 40 -65 192 -66 67 0 188 -6 268 -13 140 -11 143 -12 80 -19 -36 -3 -132 -9 -215 -12 -334 -12 -334 -12 -410 -50 -38 -20 -101 -42 -140 -50 -132 -29 -168 -35 -209 -37 -22 -2 263 -5 634 -8 371 -3 711 -2 754 3 43 4 113 19 155 33 76 26 233 107 281 144 14 11 72 56 130 100 58 44 147 113 198 153 178 138 278 207 387 268 236 133 245 137 155 69 -152 -116 -334 -283 -625 -574 -325 -327 -435 -424 -631 -563 -405 -286 -839 -407 -1345 -375 -159 10 -353 35 -494 62 -23 4 72 8 230 9 234 1 507 18 564 36 9 2 32 7 51 10 19 3 38 9 42 13 4 4 -608 5 -1360 2 l-1366 -5 -7 -35 c-8 -37 -29 -358 -29 -438 l0 -45 713 7 c391 3 757 11 813 16 56 5 140 10 188 11 48 1 84 5 79 9 -6 5 -414 32 -483 31 -67 0 -347 40 -555 80 -148 29 -370 88 -361 96 2 3 40 -2 83 -11 43 -9 123 -21 178 -26 55 -6 116 -13 135 -15 285 -34 1368 -31 1715 5 110 11 211 23 225 25 14 2 50 6 80 10 99 11 403 73 535 110 231 64 558 183 773 281 41 19 77 34 80 34 16 -1 -276 -166 -406 -231 -337 -166 -732 -299 -1112 -374 -102 -21 -146 -37 -80 -30 174 19 363 52 739 130 199 42 721 220 885 301 38 19 71 33 73 30 14 -14 -381 -211 -592 -295 -224 -89 -557 -186 -736 -216 -19 -3 -56 -10 -84 -15 -92 -18 -109 -20 -220 -35 -124 -16 -368 -39 -585 -55 -86 -7 -625 -13 -1330 -17 -964 -4 -1190 -8 -1211 -19 -83 -42 -80 -167 5 -211 27 -14 149 -17 1056 -23 1013 -7 1842 -5 1910 4 19 3 94 10 165 16 334 30 854 128 1250 236 108 29 612 192 680 219 13 5 16 4 10 -1 -9 -9 -144 -73 -270 -130 -128 -57 -320 -130 -460 -176 -88 -28 -164 -55 -168 -59 -19 -16 221 52 463 130 136 45 164 50 109 21 -97 -51 -628 -212 -809 -244 -14 -3 -65 -14 -115 -25 -106 -24 -135 -29 -195 -37 -25 -3 -53 -7 -62 -10 -29 -8 -86 -17 -193 -29 -27 -4 -115 -15 -195 -26 -201 -26 -246 -27 -1557 -35 -640 -3 -1163 -7 -1163 -8 0 -34 65 -458 80 -521 5 -22 15 -64 21 -92 l13 -53 43 0 43 0 0 -89 0 -89 -182 -4 c-205 -3 -245 -14 -275 -71 -29 -56 -1 -136 59 -168 10 -5 102 -12 205 -15 103 -3 191 -9 195 -13 4 -3 5 -88 1 -188 l-6 -182 -221 -3 -221 -3 -43 -28 c-80 -52 -124 -113 -164 -227 -27 -79 -26 -252 3 -346 70 -228 223 -402 444 -505 134 -63 216 -80 382 -79 165 0 234 13 361 68 100 44 147 73 224 135 l54 44 86 -116 c47 -64 111 -143 142 -177 l55 -61 -76 -7 c-42 -3 -147 -6 -235 -6 -180 0 -215 -9 -248 -62 -24 -40 -26 -88 -4 -134 31 -65 47 -69 351 -72 l273 -3 19 -44 c23 -52 91 -128 144 -162 89 -56 -69 -53 2693 -53 2780 0 2587 -4 2691 56 48 28 114 110 133 165 l13 37 91 4 c60 3 102 10 124 22 59 31 82 124 45 186 -34 58 -44 59 -454 61 -206 1 -393 4 -417 7 -32 3 -54 14 -93 49 -42 39 -79 88 -79 107 0 3 69 5 153 3 83 -1 231 -1 327 1 159 3 182 1 255 -20 76 -22 95 -23 390 -23 l310 0 90 28 c191 60 315 129 422 236 176 176 262 372 268 613 5 202 -45 374 -152 516 l-25 34 20 27 c83 113 142 339 129 500 -8 95 -13 120 -38 194 -95 282 -325 492 -614 560 -103 24 -127 26 -519 26 -333 1 -357 2 -345 18 11 12 11 17 2 20 -23 8 -63 44 -63 57 0 7 8 20 18 29 15 13 39 17 113 17 89 1 95 2 112 26 11 14 16 28 13 31 -3 4 -39 9 -80 12 -82 7 -95 13 -76 36 10 12 36 15 125 15 100 0 114 2 136 21 16 14 20 23 12 26 -7 3 -23 13 -35 23 l-22 18 57 12 c53 11 107 46 107 69 0 13 -66 21 -177 21 -57 0 -103 3 -103 8 0 16 196 52 287 52 50 0 98 3 107 6 22 8 20 34 -2 34 -10 0 -22 4 -27 9 -6 6 -34 11 -63 13 -29 2 -53 8 -54 13 -2 23 50 35 152 35 l105 0 40 35 40 34 -42 1 c-24 0 -43 4 -43 9 0 11 93 51 120 51 32 0 60 18 60 39 0 19 62 81 80 81 23 0 9 -566 -16 -707 -5 -27 -3 -33 12 -33 10 0 54 -11 98 -25 45 -13 86 -24 91 -25 10 -1 12 12 35 200 12 101 9 544 -5 645 -22 165 -38 272 -41 283 -3 10 -13 6 -36 -13 -68 -55 -305 -232 -358 -266 -126 -83 -268 -156 -400 -206 -80 -30 -214 -63 -257 -63 -36 0 -42 11 -46 89 l-2 44 110 27 c224 55 315 102 685 348 234 155 312 213 375 277 133 132 185 259 185 441 -1 298 -218 534 -536 584 -76 12 -203 5 -280 -16 l-21 -6 22 85 c84 315 35 604 -143 844 -103 137 -197 214 -353 287 -147 68 -314 96 -454 75z m-1195 -565 c51 -5 88 -10 180 -25 36 -5 76 -12 90 -14 108 -16 170 -28 170 -32 0 -15 -407 41 -520 72 -54 14 -54 14 -10 9 24 -3 65 -7 90 -10z m-474 -82 c271 -81 452 -134 694 -204 113 -32 228 -69 255 -82 47 -22 175 -140 199 -183 5 -10 12 -20 15 -23 4 -3 52 -57 108 -120 55 -63 123 -137 151 -164 56 -55 56 -42 4 -179 l-25 -68 -121 -73 c-122 -74 -368 -216 -617 -356 -190 -108 -349 -203 -349 -209 0 -3 170 -62 378 -130 571 -187 649 -221 736 -323 148 -173 130 -442 -40 -597 -116 -107 -442 -233 -1254 -486 -135 -42 -337 -105 -450 -140 -113 -35 -308 -95 -435 -134 -296 -89 -659 -205 -725 -231 -87 -34 -81 -22 15 30 173 95 378 213 620 357 521 309 862 510 1030 608 94 55 232 136 309 182 l138 83 122 -36 c174 -52 225 -51 340 6 l89 44 -99 22 c-54 12 -119 29 -144 37 -25 8 -247 81 -495 162 -247 81 -479 161 -515 179 -81 39 -182 135 -209 200 -37 86 -45 166 -26 253 42 189 82 247 297 423 95 78 205 167 243 199 128 105 181 141 240 161 66 23 65 23 64 13 -4 -23 3 -33 21 -33 11 0 20 -7 20 -16 0 -8 -4 -12 -10 -9 -18 11 -10 -7 11 -26 12 -10 18 -23 13 -30 -8 -13 112 74 224 163 40 31 73 60 73 64 2 27 -124 77 -561 220 -498 163 -573 188 -604 200 -16 6 -17 4 -7 -14 6 -11 11 -42 11 -69 0 -46 -2 -49 -44 -76 -25 -15 -100 -71 -168 -123 -68 -52 -156 -121 -197 -152 -41 -31 -113 -88 -160 -125 -47 -38 -98 -71 -113 -74 -15 -3 -30 -14 -33 -24 -10 -29 -72 -77 -109 -84 -95 -18 -196 79 -183 175 11 79 10 79 427 420 63 52 133 110 156 130 159 138 304 261 348 293 46 34 56 37 97 33 26 -3 136 -31 245 -64z m1598 -951 c41 -47 153 -167 296 -316 63 -66 144 -151 178 -188 43 -47 68 -67 79 -63 17 7 180 107 491 304 210 132 215 134 258 128 86 -11 147 -83 139 -164 -9 -85 -23 -98 -390 -334 -38 -25 -140 -90 -225 -145 -230 -149 -316 -193 -376 -193 -88 0 -125 27 -401 290 -141 135 -276 263 -299 284 l-42 39 73 106 c70 103 117 186 149 264 17 43 24 42 70 -12z m-310 -786 c286 -78 458 -211 573 -440 54 -107 76 -208 74 -338 -2 -136 -24 -229 -78 -337 -39 -78 -63 -110 -133 -180 -87 -87 -163 -133 -284 -174 -60 -21 -71 -14 -19 13 104 54 236 195 305 328 72 138 83 184 83 358 0 163 -8 199 -68 320 -92 187 -288 358 -517 452 -72 30 -47 29 64 -2z m-1949 -1 c-62 -48 -372 -220 -381 -212 -4 4 386 228 396 228 3 0 -4 -8 -15 -16z m295 -934 c-8 -5 -19 -10 -25 -10 -5 0 -3 5 5 10 8 5 20 10 25 10 6 0 3 -5 -5 -10z m-94 -35 c-15 -8 -33 -15 -40 -15 -16 1 36 29 54 30 8 0 2 -7 -14 -15z m-2911 -1399 c4 -176 5 -440 4 -586 -4 -285 0 -315 46 -340 32 -17 87 -5 116 26 l24 26 5 747 5 748 115 -109 c63 -61 141 -133 173 -161 l57 -50 0 -643 c0 -432 -4 -660 -11 -696 -26 -125 -126 -250 -245 -309 -61 -30 -78 -34 -170 -37 -156 -6 -249 27 -347 123 -54 54 -111 165 -124 240 -4 28 -7 416 -5 863 l4 812 173 -166 173 -166 7 -322z m4315 644 c133 -21 283 -116 353 -223 75 -113 105 -282 73 -407 -20 -78 -74 -177 -124 -228 -50 -50 -177 -152 -190 -152 -6 0 -12 -3 -14 -8 -1 -4 -44 -35 -94 -69 -51 -34 -140 -96 -199 -140 -59 -43 -150 -109 -201 -146 -52 -38 -94 -73 -94 -78 0 -5 182 -9 450 -9 l450 0 0 -240 0 -240 -680 0 -680 0 0 244 c0 134 5 267 10 296 14 76 52 151 102 206 38 42 198 165 380 294 386 273 400 286 378 341 -25 58 -31 59 -460 59 -266 0 -390 3 -390 11 0 32 36 162 58 209 39 82 141 178 245 229 70 35 100 44 169 50 123 12 384 12 458 1z m-4850 -785 c0 -534 -4 -801 -11 -837 -35 -167 -165 -314 -334 -378 -72 -27 -200 -32 -285 -11 -126 31 -231 106 -302 215 -34 54 -78 166 -78 202 0 12 41 14 234 14 132 0 246 4 261 10 42 16 100 68 126 113 l24 42 3 708 3 707 179 0 180 0 0 -785z m6735 774 c184 -34 346 -192 386 -378 6 -29 9 -95 7 -145 -3 -80 -8 -101 -40 -168 -59 -124 -152 -207 -279 -250 l-60 -20 63 -22 c210 -71 328 -232 328 -446 -1 -214 -104 -385 -289 -478 l-75 -37 -303 -3 c-337 -4 -404 2 -499 47 -146 68 -254 238 -254 398 l0 53 424 0 c411 0 424 1 449 20 50 40 44 113 -15 167 -42 39 -101 53 -229 53 l-119 0 0 240 0 240 103 0 c202 0 319 77 277 181 -25 58 -29 59 -480 59 l-410 0 0 48 c0 89 40 196 103 275 61 78 170 140 292 166 62 13 550 13 620 0z m-4854 -119 c129 -25 267 -125 326 -237 65 -123 63 -87 63 -957 l0 -791 -185 185 -185 185 0 157 0 158 -130 0 -130 0 -2 -112 c-1 -62 -2 -137 -3 -165 0 -43 -5 -57 -25 -76 -14 -13 -96 -90 -182 -171 l-158 -148 0 794 c0 856 -1 843 53 935 69 120 202 220 325 243 57 12 173 11 233 0z m1519 -1037 l0 -948 -305 305 -305 305 0 -130 0 -130 -43 -35 c-24 -19 -97 -85 -161 -145 -65 -61 -122 -111 -127 -113 -5 -2 -9 302 -9 762 0 460 4 766 9 766 5 0 137 -131 293 -290 l283 -291 6 158 c4 87 7 222 8 300 l1 142 93 78 c50 42 127 108 170 145 42 38 79 68 82 68 3 0 5 -426 5 -947z m2260 396 c84 -43 133 -122 131 -216 0 -68 -6 -87 -41 -138 -54 -78 -172 -119 -261 -92 -142 43 -209 197 -145 332 31 65 72 103 138 126 61 21 122 17 178 -12z m-1955 -110 c20 -43 63 -85 104 -101 25 -9 25 -10 -26 -34 -43 -21 -56 -33 -75 -74 -13 -27 -28 -49 -34 -50 -6 0 -25 23 -42 50 -24 39 -44 56 -83 75 l-51 23 43 23 c46 23 55 31 95 92 13 20 30 37 38 37 7 0 21 -18 31 -41z m-520 -1597 c32 -86 60 -161 63 -166 3 -5 15 20 28 55 12 35 41 110 64 166 l42 101 64 4 c35 2 64 0 64 -4 0 -8 -25 -66 -82 -188 -24 -52 -62 -135 -83 -183 l-40 -88 -64 3 -65 3 -17 45 c-61 153 -149 391 -149 402 0 10 15 12 58 10 l58 -4 59 -156z m-1756 143 c171 -60 218 -284 83 -395 -65 -54 -102 -60 -351 -60 l-226 0 -55 45 c-30 25 -56 50 -58 55 -2 6 33 10 93 10 66 0 105 5 125 15 30 16 60 61 60 90 0 26 -28 73 -51 85 -13 7 -112 11 -277 12 -208 0 -242 2 -178 9 93 11 160 41 231 104 l50 44 256 1 c200 0 266 -3 298 -15z m691 -40 l0 -55 -135 0 -135 0 0 -40 0 -40 115 0 116 0 -2 -45 -3 -45 -113 0 -113 0 0 -35 0 -35 135 0 135 0 0 -60 0 -60 -195 0 -195 0 0 235 0 235 195 0 195 0 0 -55z m270 -120 l0 -175 115 0 115 0 0 -60 0 -60 -175 0 -175 0 0 228 c0 126 3 232 7 235 3 4 30 7 60 7 l53 0 0 -175z m480 -55 l0 -230 -55 0 -55 0 0 230 0 230 55 0 55 0 0 -230z m1160 175 l0 -55 -135 0 -135 0 0 -41 0 -40 115 3 115 3 0 -50 0 -50 -113 -1 -112 -1 -3 -31 -3 -32 140 0 141 0 0 -60 0 -60 -200 0 -200 0 0 235 0 235 195 0 195 0 0 -55z m500 33 c85 -43 119 -137 82 -221 -11 -25 -30 -50 -41 -56 -28 -16 -27 -26 14 -94 19 -32 35 -60 35 -63 0 -3 -28 -4 -61 -2 l-62 3 -40 68 -40 67 -49 0 -48 0 0 -70 0 -70 -60 0 -60 0 0 230 0 230 143 0 c128 0 147 -2 187 -22z m355 -40 c22 -35 43 -70 47 -79 14 -34 25 -27 63 39 58 102 59 102 133 102 54 0 63 -2 58 -16 -3 -8 -44 -71 -91 -139 l-85 -123 0 -91 0 -91 -55 0 -55 0 0 88 0 88 -90 136 c-49 75 -90 139 -90 142 0 3 28 6 63 6 l62 0 40 -62z m930 -312 c-25 -38 -90 -77 -152 -92 -68 -16 -388 -19 -427 -4 -28 10 -66 64 -66 92 0 19 40 22 448 26 l212 2 -15 -24z"
       id="path2" />
    <path
       d="M7078 4949 c-10 -5 -18 -15 -18 -22 0 -8 3 -9 8 -1 4 6 16 16 27 22 11 6 16 11 10 11 -5 0 -18 -4 -27 -10z"
       id="path9" />
    <path
       d="M6790 4850 c-9 -6 -10 -10 -3 -10 6 0 15 5 18 10 8 12 4 12 -15 0z"
       id="path11" />
    <path
       d="M6595 4780 c-13 -5 -14 -9 -5 -9 8 0 24 4 35 9 13 5 14 9 5 9 -8 0 -24 -4 -35 -9z"
       id="path12" />
    <path
       d="M3844 3701 c-61 -37 -64 -48 -64 -243 l0 -178 130 0 130 0 0 173 c0 153 -2 176 -20 204 -37 61 -116 81 -176 44z"
       id="path13" />
    <path
       d="M3347 1893 c-4 -3 -7 -57 -7 -120 l0 -113 99 0 c92 0 102 2 130 26 17 14 36 43 42 64 10 32 9 44 -7 76 -28 55 -71 74 -170 74 -44 0 -84 -3 -87 -7z"
       id="path14" />
    <path
       d="M6459 1868 c-4 -91 -12 -83 76 -86 44 -1 86 2 92 6 7 4 15 22 19 39 5 24 1 36 -15 52 -18 18 -33 21 -96 21 l-75 0 -1 -32z"
       id="path15" />
    <path
       d="M2050 8192 c-80 -40 -87 -146 -12 -197 l37 -25 1453 0 c1596 0 1494 -4 1527 60 29 57 15 116 -40 162 -19 16 -115 17 -1475 18 -1366 0 -1457 -1 -1490 -18z"
       id="path16" />
    <path
       d="M7733 7804 c-18 -9 -31 -20 -28 -24 3 -5 -1 -11 -7 -13 -7 -3 -8 -6 -3 -6 6 0 26 13 45 29 39 34 38 36 -7 14z"
       id="path17" />
    <path
       d="M1730 7784 c-41 -18 -70 -61 -70 -105 0 -31 8 -48 34 -77 l34 -37 654 -3 c639 -2 654 -2 686 18 37 23 52 54 52 109 0 54 -29 86 -89 101 -68 16 -1261 10 -1301 -6z"
       id="path18" />
    <path
       d="M7983 7303 c15 -2 39 -2 55 0 15 2 2 4 -28 4 -30 0 -43 -2 -27 -4z"
       id="path19" />
    <path
       d="M1534 6726 l-18 -36 -202 0 c-232 0 -266 -7 -290 -65 -20 -48 -18 -78 8 -110 45 -57 -4 -55 1153 -55 688 0 1072 3 1084 10 10 5 31 24 46 42 23 27 26 39 22 76 -3 30 -13 53 -31 71 l-26 26 -875 5 -875 5 15 29 c9 16 13 31 11 34 -3 2 -13 -12 -22 -32z"
       id="path20" />
  </g>
</svg>
